<mxfile host="app.diagrams.net" agent="Mozilla/5.0 (Macintosh; Intel Mac OS X 10_15_7) AppleWebKit/537.36 (KHTML, like Gecko) Chrome/130.0.0.0 Safari/537.36" version="24.8.8">
  <diagram name="第 1 页" id="JGtxbNSCue8KURPpREqW">
    <mxGraphModel dx="1323" dy="802" grid="0" gridSize="10" guides="1" tooltips="1" connect="1" arrows="1" fold="1" page="1" pageScale="1" pageWidth="1600" pageHeight="1200" math="0" shadow="0">
      <root>
        <mxCell id="0" />
        <mxCell id="1" parent="0" />
        <mxCell id="Ns2Rvs0VvFSTDA22Z8we-7" style="edgeStyle=orthogonalEdgeStyle;rounded=0;orthogonalLoop=1;jettySize=auto;html=1;exitX=1;exitY=0.5;exitDx=0;exitDy=0;entryX=0;entryY=0.5;entryDx=0;entryDy=0;" edge="1" parent="1" source="Ns2Rvs0VvFSTDA22Z8we-1" target="Ns2Rvs0VvFSTDA22Z8we-2">
          <mxGeometry relative="1" as="geometry" />
        </mxCell>
        <mxCell id="Ns2Rvs0VvFSTDA22Z8we-9" value="&lt;b&gt;作业划分&lt;/b&gt;" style="edgeLabel;html=1;align=center;verticalAlign=middle;resizable=0;points=[];" vertex="1" connectable="0" parent="Ns2Rvs0VvFSTDA22Z8we-7">
          <mxGeometry x="-0.1923" y="4" relative="1" as="geometry">
            <mxPoint x="5" y="4" as="offset" />
          </mxGeometry>
        </mxCell>
        <mxCell id="Ns2Rvs0VvFSTDA22Z8we-1" value="原始海量日志" style="shape=parallelogram;perimeter=parallelogramPerimeter;whiteSpace=wrap;html=1;fixedSize=1;fillColor=#d5e8d4;strokeColor=#82b366;" vertex="1" parent="1">
          <mxGeometry x="80" y="110" width="120" height="60" as="geometry" />
        </mxCell>
        <mxCell id="Ns2Rvs0VvFSTDA22Z8we-8" style="edgeStyle=orthogonalEdgeStyle;rounded=0;orthogonalLoop=1;jettySize=auto;html=1;exitX=1;exitY=0.5;exitDx=0;exitDy=0;entryX=0;entryY=0.5;entryDx=0;entryDy=0;" edge="1" parent="1" source="Ns2Rvs0VvFSTDA22Z8we-2" target="Ns2Rvs0VvFSTDA22Z8we-3">
          <mxGeometry relative="1" as="geometry" />
        </mxCell>
        <mxCell id="Ns2Rvs0VvFSTDA22Z8we-11" value="&lt;b&gt;数据挖掘&lt;/b&gt;" style="edgeLabel;html=1;align=center;verticalAlign=middle;resizable=0;points=[];" vertex="1" connectable="0" parent="Ns2Rvs0VvFSTDA22Z8we-8">
          <mxGeometry x="-0.0368" y="-1" relative="1" as="geometry">
            <mxPoint x="4" y="-1" as="offset" />
          </mxGeometry>
        </mxCell>
        <mxCell id="Ns2Rvs0VvFSTDA22Z8we-2" value="&lt;ol&gt;&lt;li&gt;单一操作人员&lt;/li&gt;&lt;li&gt;单一设备&lt;/li&gt;&lt;li&gt;特定时间段&lt;/li&gt;&lt;/ol&gt;" style="rounded=0;whiteSpace=wrap;html=1;align=left;fillColor=#dae8fc;strokeColor=#6c8ebf;" vertex="1" parent="1">
          <mxGeometry x="400" y="110" width="140" height="60" as="geometry" />
        </mxCell>
        <mxCell id="Ns2Rvs0VvFSTDA22Z8we-16" style="edgeStyle=orthogonalEdgeStyle;rounded=0;orthogonalLoop=1;jettySize=auto;html=1;exitX=1;exitY=0.5;exitDx=0;exitDy=0;entryX=0;entryY=0.5;entryDx=0;entryDy=0;" edge="1" parent="1" source="Ns2Rvs0VvFSTDA22Z8we-3" target="Ns2Rvs0VvFSTDA22Z8we-15">
          <mxGeometry relative="1" as="geometry" />
        </mxCell>
        <mxCell id="Ns2Rvs0VvFSTDA22Z8we-3" value="&lt;ol&gt;&lt;li&gt;单条指令长度&lt;/li&gt;&lt;li&gt;指令操作序列长度&lt;/li&gt;&lt;li&gt;指令对象频率序列&lt;/li&gt;&lt;li&gt;行为特征&lt;/li&gt;&lt;/ol&gt;" style="rounded=0;whiteSpace=wrap;html=1;align=left;fillColor=#dae8fc;strokeColor=#6c8ebf;" vertex="1" parent="1">
          <mxGeometry x="705" y="105" width="150" height="70" as="geometry" />
        </mxCell>
        <mxCell id="Ns2Rvs0VvFSTDA22Z8we-23" style="edgeStyle=orthogonalEdgeStyle;rounded=0;orthogonalLoop=1;jettySize=auto;html=1;" edge="1" parent="1" source="Ns2Rvs0VvFSTDA22Z8we-5" target="Ns2Rvs0VvFSTDA22Z8we-6">
          <mxGeometry relative="1" as="geometry" />
        </mxCell>
        <mxCell id="Ns2Rvs0VvFSTDA22Z8we-24" value="&lt;b&gt;知识图谱构建&lt;/b&gt;" style="edgeLabel;html=1;align=center;verticalAlign=middle;resizable=0;points=[];" vertex="1" connectable="0" parent="Ns2Rvs0VvFSTDA22Z8we-23">
          <mxGeometry x="-0.2452" y="1" relative="1" as="geometry">
            <mxPoint x="9" y="1" as="offset" />
          </mxGeometry>
        </mxCell>
        <mxCell id="Ns2Rvs0VvFSTDA22Z8we-5" value="&lt;ol&gt;&lt;li&gt;文本&lt;/li&gt;&lt;li&gt;图片&lt;/li&gt;&lt;li&gt;表格&lt;/li&gt;&lt;/ol&gt;" style="rounded=0;whiteSpace=wrap;html=1;align=left;fillColor=#dae8fc;strokeColor=#6c8ebf;" vertex="1" parent="1">
          <mxGeometry x="290" y="230" width="90" height="60" as="geometry" />
        </mxCell>
        <mxCell id="Ns2Rvs0VvFSTDA22Z8we-25" style="edgeStyle=orthogonalEdgeStyle;rounded=0;orthogonalLoop=1;jettySize=auto;html=1;exitX=1;exitY=0.5;exitDx=0;exitDy=0;entryX=0;entryY=0.5;entryDx=0;entryDy=0;" edge="1" parent="1" source="Ns2Rvs0VvFSTDA22Z8we-6" target="Ns2Rvs0VvFSTDA22Z8we-19">
          <mxGeometry relative="1" as="geometry" />
        </mxCell>
        <mxCell id="Ns2Rvs0VvFSTDA22Z8we-6" value="&lt;div&gt;基于LLM Graph Transformer构建的知识图谱&lt;/div&gt;" style="rounded=0;whiteSpace=wrap;html=1;align=center;fillColor=#dae8fc;strokeColor=#6c8ebf;" vertex="1" parent="1">
          <mxGeometry x="490" y="235" width="280" height="50" as="geometry" />
        </mxCell>
        <mxCell id="Ns2Rvs0VvFSTDA22Z8we-10" value="&lt;ol&gt;&lt;li&gt;基于时间窗口的作业划分&lt;/li&gt;&lt;li&gt;基于敏感操作对象的作业划分&lt;/li&gt;&lt;/ol&gt;" style="text;html=1;align=left;verticalAlign=middle;resizable=0;points=[];autosize=1;strokeColor=none;fillColor=none;" vertex="1" parent="1">
          <mxGeometry x="170" y="130" width="220" height="70" as="geometry" />
        </mxCell>
        <mxCell id="Ns2Rvs0VvFSTDA22Z8we-12" value="基于递归搜索的FP-&lt;div&gt;Growth规则关联学习&lt;/div&gt;" style="text;html=1;align=center;verticalAlign=middle;resizable=0;points=[];autosize=1;strokeColor=none;fillColor=none;" vertex="1" parent="1">
          <mxGeometry x="560" y="145" width="130" height="40" as="geometry" />
        </mxCell>
        <mxCell id="Ns2Rvs0VvFSTDA22Z8we-13" value="&lt;b&gt;作业日志&lt;/b&gt;" style="text;html=1;align=center;verticalAlign=middle;resizable=0;points=[];autosize=1;strokeColor=none;fillColor=none;" vertex="1" parent="1">
          <mxGeometry x="435" y="80" width="70" height="30" as="geometry" />
        </mxCell>
        <mxCell id="Ns2Rvs0VvFSTDA22Z8we-14" value="&lt;b&gt;日志特征分析&lt;/b&gt;" style="text;html=1;align=center;verticalAlign=middle;resizable=0;points=[];autosize=1;strokeColor=none;fillColor=none;" vertex="1" parent="1">
          <mxGeometry x="730" y="80" width="100" height="30" as="geometry" />
        </mxCell>
        <mxCell id="Ns2Rvs0VvFSTDA22Z8we-26" style="edgeStyle=orthogonalEdgeStyle;rounded=0;orthogonalLoop=1;jettySize=auto;html=1;exitX=0.5;exitY=1;exitDx=0;exitDy=0;entryX=0.5;entryY=0;entryDx=0;entryDy=0;dashed=1;" edge="1" parent="1" source="Ns2Rvs0VvFSTDA22Z8we-15" target="Ns2Rvs0VvFSTDA22Z8we-19">
          <mxGeometry relative="1" as="geometry" />
        </mxCell>
        <mxCell id="Ns2Rvs0VvFSTDA22Z8we-29" value="&lt;b&gt;基于Faiss的向量知识库构建&lt;/b&gt;" style="edgeLabel;html=1;align=center;verticalAlign=middle;resizable=0;points=[];" vertex="1" connectable="0" parent="Ns2Rvs0VvFSTDA22Z8we-26">
          <mxGeometry x="0.2235" relative="1" as="geometry">
            <mxPoint x="27" as="offset" />
          </mxGeometry>
        </mxCell>
        <mxCell id="Ns2Rvs0VvFSTDA22Z8we-15" value="作业日志特征" style="rounded=1;whiteSpace=wrap;html=1;fillColor=#e1d5e7;strokeColor=#9673a6;" vertex="1" parent="1">
          <mxGeometry x="980" y="125" width="90" height="30" as="geometry" />
        </mxCell>
        <mxCell id="Ns2Rvs0VvFSTDA22Z8we-21" style="edgeStyle=orthogonalEdgeStyle;rounded=0;orthogonalLoop=1;jettySize=auto;html=1;exitX=1;exitY=0.5;exitDx=0;exitDy=0;entryX=0;entryY=0.5;entryDx=0;entryDy=0;" edge="1" parent="1" source="Ns2Rvs0VvFSTDA22Z8we-17" target="Ns2Rvs0VvFSTDA22Z8we-5">
          <mxGeometry relative="1" as="geometry" />
        </mxCell>
        <mxCell id="Ns2Rvs0VvFSTDA22Z8we-22" value="&lt;b&gt;元数据提取&lt;/b&gt;" style="edgeLabel;html=1;align=center;verticalAlign=middle;resizable=0;points=[];" vertex="1" connectable="0" parent="Ns2Rvs0VvFSTDA22Z8we-21">
          <mxGeometry x="-0.2108" y="-3" relative="1" as="geometry">
            <mxPoint x="3" y="-3" as="offset" />
          </mxGeometry>
        </mxCell>
        <mxCell id="Ns2Rvs0VvFSTDA22Z8we-17" value="MOP文档" style="shape=parallelogram;perimeter=parallelogramPerimeter;whiteSpace=wrap;html=1;fixedSize=1;fillColor=#d5e8d4;strokeColor=#82b366;" vertex="1" parent="1">
          <mxGeometry x="80" y="230" width="120" height="60" as="geometry" />
        </mxCell>
        <mxCell id="Ns2Rvs0VvFSTDA22Z8we-27" style="edgeStyle=orthogonalEdgeStyle;rounded=0;orthogonalLoop=1;jettySize=auto;html=1;exitX=1;exitY=0.5;exitDx=0;exitDy=0;entryX=0;entryY=0.5;entryDx=0;entryDy=0;" edge="1" parent="1">
          <mxGeometry relative="1" as="geometry">
            <mxPoint x="885" y="260.00000000000006" as="sourcePoint" />
            <mxPoint x="1130" y="315" as="targetPoint" />
            <Array as="points">
              <mxPoint x="1040" y="260" />
              <mxPoint x="1040" y="315" />
            </Array>
          </mxGeometry>
        </mxCell>
        <mxCell id="Ns2Rvs0VvFSTDA22Z8we-28" value="&lt;b&gt;基于RAG的一致性分析&lt;/b&gt;" style="edgeLabel;html=1;align=center;verticalAlign=middle;resizable=0;points=[];" vertex="1" connectable="0" parent="Ns2Rvs0VvFSTDA22Z8we-27">
          <mxGeometry x="-0.2485" y="-1" relative="1" as="geometry">
            <mxPoint x="-28" y="-1" as="offset" />
          </mxGeometry>
        </mxCell>
        <mxCell id="Ns2Rvs0VvFSTDA22Z8we-19" value="LLM" style="rhombus;whiteSpace=wrap;html=1;fillColor=#ffe6cc;strokeColor=#d79b00;" vertex="1" parent="1">
          <mxGeometry x="830" y="240" width="55" height="40" as="geometry" />
        </mxCell>
        <mxCell id="Ns2Rvs0VvFSTDA22Z8we-54" style="edgeStyle=orthogonalEdgeStyle;rounded=0;orthogonalLoop=1;jettySize=auto;html=1;exitX=0.5;exitY=1;exitDx=0;exitDy=0;entryX=0.5;entryY=0;entryDx=0;entryDy=0;dashed=1;" edge="1" parent="1" source="Ns2Rvs0VvFSTDA22Z8we-20" target="Ns2Rvs0VvFSTDA22Z8we-53">
          <mxGeometry relative="1" as="geometry">
            <Array as="points">
              <mxPoint x="1195" y="500" />
              <mxPoint x="580" y="500" />
            </Array>
          </mxGeometry>
        </mxCell>
        <mxCell id="Ns2Rvs0VvFSTDA22Z8we-20" value="异常作业识别结果" style="rounded=1;whiteSpace=wrap;html=1;fillColor=#e1d5e7;strokeColor=#9673a6;" vertex="1" parent="1">
          <mxGeometry x="1130" y="300" width="130" height="30" as="geometry" />
        </mxCell>
        <mxCell id="Ns2Rvs0VvFSTDA22Z8we-32" style="edgeStyle=orthogonalEdgeStyle;rounded=0;orthogonalLoop=1;jettySize=auto;html=1;exitX=1;exitY=0.5;exitDx=0;exitDy=0;entryX=0;entryY=0.5;entryDx=0;entryDy=0;" edge="1" parent="1" source="Ns2Rvs0VvFSTDA22Z8we-30" target="Ns2Rvs0VvFSTDA22Z8we-31">
          <mxGeometry relative="1" as="geometry" />
        </mxCell>
        <mxCell id="Ns2Rvs0VvFSTDA22Z8we-33" value="&lt;b&gt;作业序列理解模型预训练&lt;/b&gt;" style="edgeLabel;html=1;align=center;verticalAlign=middle;resizable=0;points=[];" vertex="1" connectable="0" parent="Ns2Rvs0VvFSTDA22Z8we-32">
          <mxGeometry x="-0.1216" y="-3" relative="1" as="geometry">
            <mxPoint x="10" y="-3" as="offset" />
          </mxGeometry>
        </mxCell>
        <mxCell id="Ns2Rvs0VvFSTDA22Z8we-30" value="作业日志特征" style="shape=parallelogram;perimeter=parallelogramPerimeter;whiteSpace=wrap;html=1;fixedSize=1;fillColor=#d5e8d4;strokeColor=#82b366;" vertex="1" parent="1">
          <mxGeometry x="80" y="420" width="120" height="60" as="geometry" />
        </mxCell>
        <mxCell id="Ns2Rvs0VvFSTDA22Z8we-35" style="edgeStyle=orthogonalEdgeStyle;rounded=0;orthogonalLoop=1;jettySize=auto;html=1;exitX=1;exitY=0.5;exitDx=0;exitDy=0;" edge="1" parent="1" source="Ns2Rvs0VvFSTDA22Z8we-31" target="Ns2Rvs0VvFSTDA22Z8we-34">
          <mxGeometry relative="1" as="geometry" />
        </mxCell>
        <mxCell id="Ns2Rvs0VvFSTDA22Z8we-36" value="&lt;b&gt;基于启发式规则的&lt;/b&gt;&lt;div&gt;&lt;b&gt;近似SOP生成&lt;/b&gt;&lt;/div&gt;" style="edgeLabel;html=1;align=center;verticalAlign=middle;resizable=0;points=[];" vertex="1" connectable="0" parent="Ns2Rvs0VvFSTDA22Z8we-35">
          <mxGeometry x="-0.1253" y="1" relative="1" as="geometry">
            <mxPoint as="offset" />
          </mxGeometry>
        </mxCell>
        <mxCell id="Ns2Rvs0VvFSTDA22Z8we-31" value="作业聚类" style="rounded=0;whiteSpace=wrap;html=1;align=center;fillColor=#dae8fc;strokeColor=#6c8ebf;" vertex="1" parent="1">
          <mxGeometry x="350" y="432.5" width="90" height="35" as="geometry" />
        </mxCell>
        <mxCell id="Ns2Rvs0VvFSTDA22Z8we-42" style="edgeStyle=orthogonalEdgeStyle;rounded=0;orthogonalLoop=1;jettySize=auto;html=1;exitX=1;exitY=0.5;exitDx=0;exitDy=0;entryX=0;entryY=0.5;entryDx=0;entryDy=0;" edge="1" parent="1" source="Ns2Rvs0VvFSTDA22Z8we-34" target="Ns2Rvs0VvFSTDA22Z8we-38">
          <mxGeometry relative="1" as="geometry" />
        </mxCell>
        <mxCell id="Ns2Rvs0VvFSTDA22Z8we-43" value="&lt;b&gt;SOP检索&lt;/b&gt;" style="edgeLabel;html=1;align=center;verticalAlign=middle;resizable=0;points=[];" vertex="1" connectable="0" parent="Ns2Rvs0VvFSTDA22Z8we-42">
          <mxGeometry x="-0.1241" y="4" relative="1" as="geometry">
            <mxPoint x="1" y="4" as="offset" />
          </mxGeometry>
        </mxCell>
        <mxCell id="Ns2Rvs0VvFSTDA22Z8we-34" value="SOP语义向量数据库" style="rounded=0;whiteSpace=wrap;html=1;align=center;fillColor=#dae8fc;strokeColor=#6c8ebf;" vertex="1" parent="1">
          <mxGeometry x="585" y="432.5" width="120" height="35" as="geometry" />
        </mxCell>
        <mxCell id="Ns2Rvs0VvFSTDA22Z8we-45" style="edgeStyle=orthogonalEdgeStyle;rounded=0;orthogonalLoop=1;jettySize=auto;html=1;exitX=1;exitY=0.5;exitDx=0;exitDy=0;entryX=0;entryY=0.5;entryDx=0;entryDy=0;" edge="1" parent="1" source="Ns2Rvs0VvFSTDA22Z8we-38" target="Ns2Rvs0VvFSTDA22Z8we-44">
          <mxGeometry relative="1" as="geometry" />
        </mxCell>
        <mxCell id="Ns2Rvs0VvFSTDA22Z8we-38" value="基于余项相似度的&lt;div&gt;作业序列语义相似度计算&lt;/div&gt;" style="rounded=0;whiteSpace=wrap;html=1;fillColor=#dae8fc;strokeColor=#6c8ebf;" vertex="1" parent="1">
          <mxGeometry x="782.5" y="420" width="150" height="60" as="geometry" />
        </mxCell>
        <mxCell id="Ns2Rvs0VvFSTDA22Z8we-40" style="edgeStyle=orthogonalEdgeStyle;rounded=0;orthogonalLoop=1;jettySize=auto;html=1;exitX=0.5;exitY=0;exitDx=0;exitDy=0;entryX=0.5;entryY=1;entryDx=0;entryDy=0;" edge="1" parent="1" source="Ns2Rvs0VvFSTDA22Z8we-39" target="Ns2Rvs0VvFSTDA22Z8we-19">
          <mxGeometry relative="1" as="geometry" />
        </mxCell>
        <mxCell id="Ns2Rvs0VvFSTDA22Z8we-41" style="edgeStyle=orthogonalEdgeStyle;rounded=0;orthogonalLoop=1;jettySize=auto;html=1;exitX=0.5;exitY=1;exitDx=0;exitDy=0;entryX=0.5;entryY=0;entryDx=0;entryDy=0;" edge="1" parent="1" source="Ns2Rvs0VvFSTDA22Z8we-39" target="Ns2Rvs0VvFSTDA22Z8we-38">
          <mxGeometry relative="1" as="geometry" />
        </mxCell>
        <mxCell id="Ns2Rvs0VvFSTDA22Z8we-39" value="待检测日志" style="shape=parallelogram;perimeter=parallelogramPerimeter;whiteSpace=wrap;html=1;fixedSize=1;fillColor=#d5e8d4;strokeColor=#82b366;" vertex="1" parent="1">
          <mxGeometry x="801.25" y="330" width="112.5" height="40" as="geometry" />
        </mxCell>
        <mxCell id="Ns2Rvs0VvFSTDA22Z8we-46" style="edgeStyle=orthogonalEdgeStyle;rounded=0;orthogonalLoop=1;jettySize=auto;html=1;exitX=0.5;exitY=0;exitDx=0;exitDy=0;entryX=0;entryY=0.5;entryDx=0;entryDy=0;" edge="1" parent="1" source="Ns2Rvs0VvFSTDA22Z8we-44" target="Ns2Rvs0VvFSTDA22Z8we-20">
          <mxGeometry relative="1" as="geometry">
            <Array as="points">
              <mxPoint x="1040" y="430" />
              <mxPoint x="1040" y="315" />
            </Array>
          </mxGeometry>
        </mxCell>
        <mxCell id="Ns2Rvs0VvFSTDA22Z8we-47" value="&lt;b&gt;基于LLM的作业语义&lt;/b&gt;&lt;div&gt;&lt;b&gt;一致性分析&lt;/b&gt;&lt;/div&gt;" style="edgeLabel;html=1;align=center;verticalAlign=middle;resizable=0;points=[];" vertex="1" connectable="0" parent="Ns2Rvs0VvFSTDA22Z8we-46">
          <mxGeometry x="-0.5174" y="-2" relative="1" as="geometry">
            <mxPoint as="offset" />
          </mxGeometry>
        </mxCell>
        <mxCell id="Ns2Rvs0VvFSTDA22Z8we-44" value="LLM" style="rhombus;whiteSpace=wrap;html=1;fillColor=#ffe6cc;strokeColor=#d79b00;" vertex="1" parent="1">
          <mxGeometry x="1013" y="430" width="55" height="40" as="geometry" />
        </mxCell>
        <mxCell id="Ns2Rvs0VvFSTDA22Z8we-50" style="edgeStyle=orthogonalEdgeStyle;rounded=0;orthogonalLoop=1;jettySize=auto;html=1;exitX=1;exitY=0.5;exitDx=0;exitDy=0;" edge="1" parent="1" source="Ns2Rvs0VvFSTDA22Z8we-48" target="Ns2Rvs0VvFSTDA22Z8we-49">
          <mxGeometry relative="1" as="geometry" />
        </mxCell>
        <mxCell id="Ns2Rvs0VvFSTDA22Z8we-51" value="&lt;b&gt;人工标注&lt;/b&gt;" style="edgeLabel;html=1;align=center;verticalAlign=middle;resizable=0;points=[];" vertex="1" connectable="0" parent="Ns2Rvs0VvFSTDA22Z8we-50">
          <mxGeometry x="-0.1197" y="-1" relative="1" as="geometry">
            <mxPoint as="offset" />
          </mxGeometry>
        </mxCell>
        <mxCell id="Ns2Rvs0VvFSTDA22Z8we-58" style="edgeStyle=orthogonalEdgeStyle;rounded=0;orthogonalLoop=1;jettySize=auto;html=1;exitX=0.5;exitY=1;exitDx=0;exitDy=0;entryX=0;entryY=0.5;entryDx=0;entryDy=0;" edge="1" parent="1" source="Ns2Rvs0VvFSTDA22Z8we-48" target="Ns2Rvs0VvFSTDA22Z8we-57">
          <mxGeometry relative="1" as="geometry" />
        </mxCell>
        <mxCell id="Ns2Rvs0VvFSTDA22Z8we-59" value="&lt;b&gt;基于Faiss的向量库构建&lt;/b&gt;" style="edgeLabel;html=1;align=center;verticalAlign=middle;resizable=0;points=[];" vertex="1" connectable="0" parent="Ns2Rvs0VvFSTDA22Z8we-58">
          <mxGeometry x="0.2729" y="-2" relative="1" as="geometry">
            <mxPoint y="-2" as="offset" />
          </mxGeometry>
        </mxCell>
        <mxCell id="Ns2Rvs0VvFSTDA22Z8we-48" value="全量作业日志" style="shape=parallelogram;perimeter=parallelogramPerimeter;whiteSpace=wrap;html=1;fixedSize=1;fillColor=#d5e8d4;strokeColor=#82b366;" vertex="1" parent="1">
          <mxGeometry x="70" y="540" width="120" height="60" as="geometry" />
        </mxCell>
        <mxCell id="Ns2Rvs0VvFSTDA22Z8we-55" style="edgeStyle=orthogonalEdgeStyle;rounded=0;orthogonalLoop=1;jettySize=auto;html=1;exitX=1;exitY=0.5;exitDx=0;exitDy=0;entryX=0;entryY=0.5;entryDx=0;entryDy=0;" edge="1" parent="1" source="Ns2Rvs0VvFSTDA22Z8we-49" target="Ns2Rvs0VvFSTDA22Z8we-53">
          <mxGeometry relative="1" as="geometry" />
        </mxCell>
        <mxCell id="Ns2Rvs0VvFSTDA22Z8we-56" value="&lt;b&gt;基于LoRA的微调&lt;/b&gt;" style="edgeLabel;html=1;align=center;verticalAlign=middle;resizable=0;points=[];" vertex="1" connectable="0" parent="Ns2Rvs0VvFSTDA22Z8we-55">
          <mxGeometry x="-0.0704" y="1" relative="1" as="geometry">
            <mxPoint y="1" as="offset" />
          </mxGeometry>
        </mxCell>
        <mxCell id="Ns2Rvs0VvFSTDA22Z8we-49" value="具有意图分析的数据" style="rounded=0;whiteSpace=wrap;html=1;fillColor=#dae8fc;strokeColor=#6c8ebf;" vertex="1" parent="1">
          <mxGeometry x="300" y="540" width="120" height="60" as="geometry" />
        </mxCell>
        <mxCell id="Ns2Rvs0VvFSTDA22Z8we-52" value="&lt;ol&gt;&lt;li&gt;指令意图&lt;/li&gt;&lt;li&gt;行为分析&lt;/li&gt;&lt;/ol&gt;" style="text;html=1;align=center;verticalAlign=middle;resizable=0;points=[];autosize=1;strokeColor=none;fillColor=none;" vertex="1" parent="1">
          <mxGeometry x="170" y="560" width="110" height="70" as="geometry" />
        </mxCell>
        <mxCell id="Ns2Rvs0VvFSTDA22Z8we-63" style="edgeStyle=orthogonalEdgeStyle;rounded=0;orthogonalLoop=1;jettySize=auto;html=1;exitX=1;exitY=0.5;exitDx=0;exitDy=0;entryX=0;entryY=0.5;entryDx=0;entryDy=0;" edge="1" parent="1" source="Ns2Rvs0VvFSTDA22Z8we-53" target="Ns2Rvs0VvFSTDA22Z8we-62">
          <mxGeometry relative="1" as="geometry" />
        </mxCell>
        <mxCell id="Ns2Rvs0VvFSTDA22Z8we-64" value="&lt;b&gt;基于CoT的知识推理&lt;/b&gt;" style="edgeLabel;html=1;align=center;verticalAlign=middle;resizable=0;points=[];" vertex="1" connectable="0" parent="Ns2Rvs0VvFSTDA22Z8we-63">
          <mxGeometry x="0.0843" relative="1" as="geometry">
            <mxPoint x="-18" as="offset" />
          </mxGeometry>
        </mxCell>
        <mxCell id="Ns2Rvs0VvFSTDA22Z8we-53" value="微调LLM" style="rhombus;whiteSpace=wrap;html=1;fillColor=#ffe6cc;strokeColor=#d79b00;" vertex="1" parent="1">
          <mxGeometry x="540" y="550" width="80" height="40" as="geometry" />
        </mxCell>
        <mxCell id="Ns2Rvs0VvFSTDA22Z8we-60" style="edgeStyle=orthogonalEdgeStyle;rounded=0;orthogonalLoop=1;jettySize=auto;html=1;exitX=1;exitY=0.5;exitDx=0;exitDy=0;entryX=0.5;entryY=1;entryDx=0;entryDy=0;" edge="1" parent="1" source="Ns2Rvs0VvFSTDA22Z8we-57" target="Ns2Rvs0VvFSTDA22Z8we-53">
          <mxGeometry relative="1" as="geometry" />
        </mxCell>
        <mxCell id="Ns2Rvs0VvFSTDA22Z8we-61" value="&lt;b&gt;基于向量相似度匹配&lt;/b&gt;&lt;div&gt;&lt;b&gt;的RAG知识补充&lt;/b&gt;&lt;/div&gt;" style="edgeLabel;html=1;align=center;verticalAlign=middle;resizable=0;points=[];" vertex="1" connectable="0" parent="Ns2Rvs0VvFSTDA22Z8we-60">
          <mxGeometry x="0.0329" relative="1" as="geometry">
            <mxPoint x="-44" as="offset" />
          </mxGeometry>
        </mxCell>
        <mxCell id="Ns2Rvs0VvFSTDA22Z8we-57" value="向量数据库" style="rounded=0;whiteSpace=wrap;html=1;fillColor=#dae8fc;strokeColor=#6c8ebf;" vertex="1" parent="1">
          <mxGeometry x="300" y="650" width="120" height="60" as="geometry" />
        </mxCell>
        <mxCell id="Ns2Rvs0VvFSTDA22Z8we-62" value="作业人员意图与行为一致性分析" style="rounded=1;whiteSpace=wrap;html=1;fillColor=#e1d5e7;strokeColor=#9673a6;" vertex="1" parent="1">
          <mxGeometry x="810" y="555" width="177" height="30" as="geometry" />
        </mxCell>
      </root>
    </mxGraphModel>
  </diagram>
</mxfile>
